<?xml version="1.0" encoding="utf-8"?>
<svg xmlns="http://www.w3.org/2000/svg" xmlns:xlink="http://www.w3.org/1999/xlink" width="600" height="400" viewBox="0 0 2400 1600">
<defs>
  <clipPath id="clip560">
    <rect x="0" y="0" width="2400" height="1600"/>
  </clipPath>
</defs>
<path clip-path="url(#clip560)" d="M0 1600 L2400 1600 L2400 0 L0 0  Z" fill="#ffffff" fill-rule="evenodd" fill-opacity="1"/>
<defs>
  <clipPath id="clip561">
    <rect x="480" y="0" width="1681" height="1600"/>
  </clipPath>
</defs>
<path clip-path="url(#clip560)" d="M338.404 1423.18 L2352.76 1423.18 L2352.76 47.2441 L338.404 47.2441  Z" fill="#ffffff" fill-rule="evenodd" fill-opacity="1"/>
<defs>
  <clipPath id="clip562">
    <rect x="338" y="47" width="2015" height="1377"/>
  </clipPath>
</defs>
<polyline clip-path="url(#clip560)" style="stroke:#000000; stroke-linecap:round; stroke-linejoin:round; stroke-width:4; stroke-opacity:1; fill:none" points="338.404,1423.18 2352.76,1423.18 "/>
<polyline clip-path="url(#clip560)" style="stroke:#000000; stroke-linecap:round; stroke-linejoin:round; stroke-width:4; stroke-opacity:1; fill:none" points="556.737,1423.18 556.737,1404.28 "/>
<polyline clip-path="url(#clip560)" style="stroke:#000000; stroke-linecap:round; stroke-linejoin:round; stroke-width:4; stroke-opacity:1; fill:none" points="884.852,1423.18 884.852,1404.28 "/>
<polyline clip-path="url(#clip560)" style="stroke:#000000; stroke-linecap:round; stroke-linejoin:round; stroke-width:4; stroke-opacity:1; fill:none" points="1212.97,1423.18 1212.97,1404.28 "/>
<polyline clip-path="url(#clip560)" style="stroke:#000000; stroke-linecap:round; stroke-linejoin:round; stroke-width:4; stroke-opacity:1; fill:none" points="1541.08,1423.18 1541.08,1404.28 "/>
<polyline clip-path="url(#clip560)" style="stroke:#000000; stroke-linecap:round; stroke-linejoin:round; stroke-width:4; stroke-opacity:1; fill:none" points="1869.2,1423.18 1869.2,1404.28 "/>
<polyline clip-path="url(#clip560)" style="stroke:#000000; stroke-linecap:round; stroke-linejoin:round; stroke-width:4; stroke-opacity:1; fill:none" points="2197.31,1423.18 2197.31,1404.28 "/>
<path clip-path="url(#clip560)" d="M545.58 1466.95 Q548.937 1467.66 550.812 1469.93 Q552.71 1472.2 552.71 1475.53 Q552.71 1480.65 549.191 1483.45 Q545.673 1486.25 539.191 1486.25 Q537.015 1486.25 534.701 1485.81 Q532.409 1485.39 529.955 1484.54 L529.955 1480.02 Q531.9 1481.16 534.214 1481.74 Q536.529 1482.32 539.052 1482.32 Q543.451 1482.32 545.742 1480.58 Q548.057 1478.84 548.057 1475.53 Q548.057 1472.48 545.904 1470.77 Q543.775 1469.03 539.955 1469.03 L535.927 1469.03 L535.927 1465.19 L540.14 1465.19 Q543.589 1465.19 545.418 1463.82 Q547.247 1462.43 547.247 1459.84 Q547.247 1457.18 545.349 1455.77 Q543.474 1454.33 539.955 1454.33 Q538.034 1454.33 535.835 1454.75 Q533.636 1455.16 530.997 1456.04 L530.997 1451.88 Q533.659 1451.14 535.974 1450.77 Q538.312 1450.39 540.372 1450.39 Q545.696 1450.39 548.798 1452.83 Q551.9 1455.23 551.9 1459.35 Q551.9 1462.22 550.256 1464.21 Q548.613 1466.18 545.58 1466.95 Z" fill="#000000" fill-rule="nonzero" fill-opacity="1" /><path clip-path="url(#clip560)" d="M571.575 1454.1 Q567.964 1454.1 566.136 1457.66 Q564.33 1461.2 564.33 1468.33 Q564.33 1475.44 566.136 1479.01 Q567.964 1482.55 571.575 1482.55 Q575.21 1482.55 577.015 1479.01 Q578.844 1475.44 578.844 1468.33 Q578.844 1461.2 577.015 1457.66 Q575.21 1454.1 571.575 1454.1 M571.575 1450.39 Q577.386 1450.39 580.441 1455 Q583.52 1459.58 583.52 1468.33 Q583.52 1477.06 580.441 1481.67 Q577.386 1486.25 571.575 1486.25 Q565.765 1486.25 562.687 1481.67 Q559.631 1477.06 559.631 1468.33 Q559.631 1459.58 562.687 1455 Q565.765 1450.39 571.575 1450.39 Z" fill="#000000" fill-rule="nonzero" fill-opacity="1" /><path clip-path="url(#clip560)" d="M873.024 1455.09 L861.218 1473.54 L873.024 1473.54 L873.024 1455.09 M871.797 1451.02 L877.676 1451.02 L877.676 1473.54 L882.607 1473.54 L882.607 1477.43 L877.676 1477.43 L877.676 1485.58 L873.024 1485.58 L873.024 1477.43 L857.422 1477.43 L857.422 1472.92 L871.797 1451.02 Z" fill="#000000" fill-rule="nonzero" fill-opacity="1" /><path clip-path="url(#clip560)" d="M900.338 1454.1 Q896.727 1454.1 894.899 1457.66 Q893.093 1461.2 893.093 1468.33 Q893.093 1475.44 894.899 1479.01 Q896.727 1482.55 900.338 1482.55 Q903.973 1482.55 905.778 1479.01 Q907.607 1475.44 907.607 1468.33 Q907.607 1461.2 905.778 1457.66 Q903.973 1454.1 900.338 1454.1 M900.338 1450.39 Q906.148 1450.39 909.204 1455 Q912.283 1459.58 912.283 1468.33 Q912.283 1477.06 909.204 1481.67 Q906.148 1486.25 900.338 1486.25 Q894.528 1486.25 891.449 1481.67 Q888.394 1477.06 888.394 1468.33 Q888.394 1459.58 891.449 1455 Q894.528 1450.39 900.338 1450.39 Z" fill="#000000" fill-rule="nonzero" fill-opacity="1" /><path clip-path="url(#clip560)" d="M1187.67 1451.02 L1206.02 1451.02 L1206.02 1454.96 L1191.95 1454.96 L1191.95 1463.43 Q1192.97 1463.08 1193.99 1462.92 Q1195 1462.73 1196.02 1462.73 Q1201.81 1462.73 1205.19 1465.9 Q1208.57 1469.08 1208.57 1474.49 Q1208.57 1480.07 1205.1 1483.17 Q1201.62 1486.25 1195.31 1486.25 Q1193.13 1486.25 1190.86 1485.88 Q1188.62 1485.51 1186.21 1484.77 L1186.21 1480.07 Q1188.29 1481.2 1190.51 1481.76 Q1192.74 1482.32 1195.21 1482.32 Q1199.22 1482.32 1201.56 1480.21 Q1203.89 1478.1 1203.89 1474.49 Q1203.89 1470.88 1201.56 1468.77 Q1199.22 1466.67 1195.21 1466.67 Q1193.34 1466.67 1191.46 1467.08 Q1189.61 1467.5 1187.67 1468.38 L1187.67 1451.02 Z" fill="#000000" fill-rule="nonzero" fill-opacity="1" /><path clip-path="url(#clip560)" d="M1227.78 1454.1 Q1224.17 1454.1 1222.34 1457.66 Q1220.54 1461.2 1220.54 1468.33 Q1220.54 1475.44 1222.34 1479.01 Q1224.17 1482.55 1227.78 1482.55 Q1231.42 1482.55 1233.22 1479.01 Q1235.05 1475.44 1235.05 1468.33 Q1235.05 1461.2 1233.22 1457.66 Q1231.42 1454.1 1227.78 1454.1 M1227.78 1450.39 Q1233.59 1450.39 1236.65 1455 Q1239.73 1459.58 1239.73 1468.33 Q1239.73 1477.06 1236.65 1481.67 Q1233.59 1486.25 1227.78 1486.25 Q1221.97 1486.25 1218.89 1481.67 Q1215.84 1477.06 1215.84 1468.33 Q1215.84 1459.58 1218.89 1455 Q1221.97 1450.39 1227.78 1450.39 Z" fill="#000000" fill-rule="nonzero" fill-opacity="1" /><path clip-path="url(#clip560)" d="M1526.49 1466.44 Q1523.34 1466.44 1521.49 1468.59 Q1519.66 1470.74 1519.66 1474.49 Q1519.66 1478.22 1521.49 1480.39 Q1523.34 1482.55 1526.49 1482.55 Q1529.64 1482.55 1531.46 1480.39 Q1533.32 1478.22 1533.32 1474.49 Q1533.32 1470.74 1531.46 1468.59 Q1529.64 1466.44 1526.49 1466.44 M1535.77 1451.78 L1535.77 1456.04 Q1534.01 1455.21 1532.2 1454.77 Q1530.42 1454.33 1528.66 1454.33 Q1524.03 1454.33 1521.58 1457.45 Q1519.15 1460.58 1518.8 1466.9 Q1520.17 1464.89 1522.23 1463.82 Q1524.29 1462.73 1526.76 1462.73 Q1531.97 1462.73 1534.98 1465.9 Q1538.01 1469.05 1538.01 1474.49 Q1538.01 1479.82 1534.87 1483.03 Q1531.72 1486.25 1526.49 1486.25 Q1520.49 1486.25 1517.32 1481.67 Q1514.15 1477.06 1514.15 1468.33 Q1514.15 1460.14 1518.04 1455.28 Q1521.93 1450.39 1528.48 1450.39 Q1530.24 1450.39 1532.02 1450.74 Q1533.82 1451.09 1535.77 1451.78 Z" fill="#000000" fill-rule="nonzero" fill-opacity="1" /><path clip-path="url(#clip560)" d="M1556.07 1454.1 Q1552.46 1454.1 1550.63 1457.66 Q1548.82 1461.2 1548.82 1468.33 Q1548.82 1475.44 1550.63 1479.01 Q1552.46 1482.55 1556.07 1482.55 Q1559.7 1482.55 1561.51 1479.01 Q1563.34 1475.44 1563.34 1468.33 Q1563.34 1461.2 1561.51 1457.66 Q1559.7 1454.1 1556.07 1454.1 M1556.07 1450.39 Q1561.88 1450.39 1564.94 1455 Q1568.01 1459.58 1568.01 1468.33 Q1568.01 1477.06 1564.94 1481.67 Q1561.88 1486.25 1556.07 1486.25 Q1550.26 1486.25 1547.18 1481.67 Q1544.13 1477.06 1544.13 1468.33 Q1544.13 1459.58 1547.18 1455 Q1550.26 1450.39 1556.07 1450.39 Z" fill="#000000" fill-rule="nonzero" fill-opacity="1" /><path clip-path="url(#clip560)" d="M1842.55 1451.02 L1864.78 1451.02 L1864.78 1453.01 L1852.23 1485.58 L1847.34 1485.58 L1859.15 1454.96 L1842.55 1454.96 L1842.55 1451.02 Z" fill="#000000" fill-rule="nonzero" fill-opacity="1" /><path clip-path="url(#clip560)" d="M1883.9 1454.1 Q1880.28 1454.1 1878.46 1457.66 Q1876.65 1461.2 1876.65 1468.33 Q1876.65 1475.44 1878.46 1479.01 Q1880.28 1482.55 1883.9 1482.55 Q1887.53 1482.55 1889.34 1479.01 Q1891.16 1475.44 1891.16 1468.33 Q1891.16 1461.2 1889.34 1457.66 Q1887.53 1454.1 1883.9 1454.1 M1883.9 1450.39 Q1889.71 1450.39 1892.76 1455 Q1895.84 1459.58 1895.84 1468.33 Q1895.84 1477.06 1892.76 1481.67 Q1889.71 1486.25 1883.9 1486.25 Q1878.09 1486.25 1875.01 1481.67 Q1871.95 1477.06 1871.95 1468.33 Q1871.95 1459.58 1875.01 1455 Q1878.09 1450.39 1883.9 1450.39 Z" fill="#000000" fill-rule="nonzero" fill-opacity="1" /><path clip-path="url(#clip560)" d="M2182.18 1469.17 Q2178.85 1469.17 2176.93 1470.95 Q2175.03 1472.73 2175.03 1475.86 Q2175.03 1478.98 2176.93 1480.77 Q2178.85 1482.55 2182.18 1482.55 Q2185.52 1482.55 2187.44 1480.77 Q2189.36 1478.96 2189.36 1475.86 Q2189.36 1472.73 2187.44 1470.95 Q2185.54 1469.17 2182.18 1469.17 M2177.51 1467.18 Q2174.5 1466.44 2172.81 1464.38 Q2171.14 1462.32 2171.14 1459.35 Q2171.14 1455.21 2174.08 1452.8 Q2177.05 1450.39 2182.18 1450.39 Q2187.35 1450.39 2190.29 1452.8 Q2193.23 1455.21 2193.23 1459.35 Q2193.23 1462.32 2191.54 1464.38 Q2189.87 1466.44 2186.88 1467.18 Q2190.26 1467.96 2192.14 1470.26 Q2194.04 1472.55 2194.04 1475.86 Q2194.04 1480.88 2190.96 1483.57 Q2187.9 1486.25 2182.18 1486.25 Q2176.47 1486.25 2173.39 1483.57 Q2170.33 1480.88 2170.33 1475.86 Q2170.33 1472.55 2172.23 1470.26 Q2174.13 1467.96 2177.51 1467.18 M2175.8 1459.79 Q2175.8 1462.48 2177.46 1463.98 Q2179.15 1465.49 2182.18 1465.49 Q2185.19 1465.49 2186.88 1463.98 Q2188.6 1462.48 2188.6 1459.79 Q2188.6 1457.11 2186.88 1455.6 Q2185.19 1454.1 2182.18 1454.1 Q2179.15 1454.1 2177.46 1455.6 Q2175.8 1457.11 2175.8 1459.79 Z" fill="#000000" fill-rule="nonzero" fill-opacity="1" /><path clip-path="url(#clip560)" d="M2212.35 1454.1 Q2208.74 1454.1 2206.91 1457.66 Q2205.1 1461.2 2205.1 1468.33 Q2205.1 1475.44 2206.91 1479.01 Q2208.74 1482.55 2212.35 1482.55 Q2215.98 1482.55 2217.79 1479.01 Q2219.61 1475.44 2219.61 1468.33 Q2219.61 1461.2 2217.79 1457.66 Q2215.98 1454.1 2212.35 1454.1 M2212.35 1450.39 Q2218.16 1450.39 2221.21 1455 Q2224.29 1459.58 2224.29 1468.33 Q2224.29 1477.06 2221.21 1481.67 Q2218.16 1486.25 2212.35 1486.25 Q2206.54 1486.25 2203.46 1481.67 Q2200.4 1477.06 2200.4 1468.33 Q2200.4 1459.58 2203.46 1455 Q2206.54 1450.39 2212.35 1450.39 Z" fill="#000000" fill-rule="nonzero" fill-opacity="1" /><path clip-path="url(#clip560)" d="M1306.3 1526.86 L1297.58 1550.51 L1315.06 1550.51 L1306.3 1526.86 M1302.68 1520.52 L1309.96 1520.52 L1328.07 1568.04 L1321.39 1568.04 L1317.06 1555.85 L1295.64 1555.85 L1291.31 1568.04 L1284.53 1568.04 L1302.68 1520.52 Z" fill="#000000" fill-rule="nonzero" fill-opacity="1" /><path clip-path="url(#clip560)" d="M1358.22 1549.81 Q1358.22 1543.44 1355.57 1539.94 Q1352.96 1536.44 1348.22 1536.44 Q1343.51 1536.44 1340.87 1539.94 Q1338.26 1543.44 1338.26 1549.81 Q1338.26 1556.14 1340.87 1559.64 Q1343.51 1563.14 1348.22 1563.14 Q1352.96 1563.14 1355.57 1559.64 Q1358.22 1556.14 1358.22 1549.81 M1364.07 1563.62 Q1364.07 1572.72 1360.03 1577.15 Q1355.99 1581.6 1347.65 1581.6 Q1344.56 1581.6 1341.82 1581.13 Q1339.09 1580.68 1336.51 1579.72 L1336.51 1574.03 Q1339.09 1575.43 1341.6 1576.1 Q1344.12 1576.76 1346.73 1576.76 Q1352.49 1576.76 1355.35 1573.74 Q1358.22 1570.75 1358.22 1564.67 L1358.22 1561.77 Q1356.4 1564.92 1353.57 1566.48 Q1350.74 1568.04 1346.79 1568.04 Q1340.23 1568.04 1336.22 1563.05 Q1332.21 1558.05 1332.21 1549.81 Q1332.21 1541.53 1336.22 1536.53 Q1340.23 1531.54 1346.79 1531.54 Q1350.74 1531.54 1353.57 1533.1 Q1356.4 1534.66 1358.22 1537.81 L1358.22 1532.4 L1364.07 1532.4 L1364.07 1563.62 Z" fill="#000000" fill-rule="nonzero" fill-opacity="1" /><path clip-path="url(#clip560)" d="M1406.63 1548.76 L1406.63 1551.62 L1379.7 1551.62 Q1380.08 1557.67 1383.33 1560.85 Q1386.61 1564 1392.43 1564 Q1395.81 1564 1398.96 1563.17 Q1402.14 1562.35 1405.26 1560.69 L1405.26 1566.23 Q1402.11 1567.57 1398.8 1568.27 Q1395.49 1568.97 1392.08 1568.97 Q1383.55 1568.97 1378.55 1564 Q1373.59 1559.04 1373.59 1550.57 Q1373.59 1541.82 1378.3 1536.69 Q1383.04 1531.54 1391.06 1531.54 Q1398.26 1531.54 1402.43 1536.18 Q1406.63 1540.8 1406.63 1548.76 M1400.77 1547.04 Q1400.71 1542.23 1398.07 1539.37 Q1395.46 1536.5 1391.13 1536.5 Q1386.23 1536.5 1383.27 1539.27 Q1380.34 1542.04 1379.89 1547.07 L1400.77 1547.04 Z" fill="#000000" fill-rule="nonzero" fill-opacity="1" /><polyline clip-path="url(#clip560)" style="stroke:#000000; stroke-linecap:round; stroke-linejoin:round; stroke-width:4; stroke-opacity:1; fill:none" points="338.404,1423.18 338.404,47.2441 "/>
<polyline clip-path="url(#clip560)" style="stroke:#000000; stroke-linecap:round; stroke-linejoin:round; stroke-width:4; stroke-opacity:1; fill:none" points="338.404,1404.5 357.302,1404.5 "/>
<polyline clip-path="url(#clip560)" style="stroke:#000000; stroke-linecap:round; stroke-linejoin:round; stroke-width:4; stroke-opacity:1; fill:none" points="338.404,1024.45 357.302,1024.45 "/>
<polyline clip-path="url(#clip560)" style="stroke:#000000; stroke-linecap:round; stroke-linejoin:round; stroke-width:4; stroke-opacity:1; fill:none" points="338.404,644.401 357.302,644.401 "/>
<polyline clip-path="url(#clip560)" style="stroke:#000000; stroke-linecap:round; stroke-linejoin:round; stroke-width:4; stroke-opacity:1; fill:none" points="338.404,264.352 357.302,264.352 "/>
<path clip-path="url(#clip560)" d="M290.46 1390.3 Q286.849 1390.3 285.02 1393.86 Q283.215 1397.41 283.215 1404.53 Q283.215 1411.64 285.02 1415.21 Q286.849 1418.75 290.46 1418.75 Q294.094 1418.75 295.9 1415.21 Q297.729 1411.64 297.729 1404.53 Q297.729 1397.41 295.9 1393.86 Q294.094 1390.3 290.46 1390.3 M290.46 1386.6 Q296.27 1386.6 299.326 1391.2 Q302.404 1395.78 302.404 1404.53 Q302.404 1413.26 299.326 1417.87 Q296.27 1422.45 290.46 1422.45 Q284.65 1422.45 281.571 1417.87 Q278.516 1413.26 278.516 1404.53 Q278.516 1395.78 281.571 1391.2 Q284.65 1386.6 290.46 1386.6 Z" fill="#000000" fill-rule="nonzero" fill-opacity="1" /><path clip-path="url(#clip560)" d="M121.043 1044.24 L137.362 1044.24 L137.362 1048.18 L115.418 1048.18 L115.418 1044.24 Q118.08 1041.49 122.663 1036.86 Q127.269 1032.21 128.45 1030.86 Q130.695 1028.34 131.575 1026.6 Q132.478 1024.85 132.478 1023.16 Q132.478 1020.4 130.533 1018.66 Q128.612 1016.93 125.51 1016.93 Q123.311 1016.93 120.857 1017.69 Q118.427 1018.46 115.649 1020.01 L115.649 1015.28 Q118.473 1014.15 120.927 1013.57 Q123.38 1012.99 125.418 1012.99 Q130.788 1012.99 133.982 1015.68 Q137.177 1018.36 137.177 1022.85 Q137.177 1024.98 136.367 1026.91 Q135.579 1028.8 133.473 1031.4 Q132.894 1032.07 129.792 1035.28 Q126.691 1038.48 121.043 1044.24 Z" fill="#000000" fill-rule="nonzero" fill-opacity="1" /><path clip-path="url(#clip560)" d="M147.177 1042.3 L152.061 1042.3 L152.061 1048.18 L147.177 1048.18 L147.177 1042.3 Z" fill="#000000" fill-rule="nonzero" fill-opacity="1" /><path clip-path="url(#clip560)" d="M172.246 1016.7 Q168.635 1016.7 166.806 1020.26 Q165.001 1023.8 165.001 1030.93 Q165.001 1038.04 166.806 1041.6 Q168.635 1045.15 172.246 1045.15 Q175.88 1045.15 177.686 1041.6 Q179.514 1038.04 179.514 1030.93 Q179.514 1023.8 177.686 1020.26 Q175.88 1016.7 172.246 1016.7 M172.246 1012.99 Q178.056 1012.99 181.112 1017.6 Q184.19 1022.18 184.19 1030.93 Q184.19 1039.66 181.112 1044.27 Q178.056 1048.85 172.246 1048.85 Q166.436 1048.85 163.357 1044.27 Q160.302 1039.66 160.302 1030.93 Q160.302 1022.18 163.357 1017.6 Q166.436 1012.99 172.246 1012.99 Z" fill="#000000" fill-rule="nonzero" fill-opacity="1" /><path clip-path="url(#clip560)" d="M220.579 1022.72 L210 1033.34 L220.579 1043.92 L217.824 1046.72 L207.199 1036.1 L196.575 1046.72 L193.843 1043.92 L204.399 1033.34 L193.843 1022.72 L196.575 1019.91 L207.199 1030.54 L217.824 1019.91 L220.579 1022.72 Z" fill="#000000" fill-rule="nonzero" fill-opacity="1" /><path clip-path="url(#clip560)" d="M232.94 1044.24 L240.579 1044.24 L240.579 1017.88 L232.269 1019.54 L232.269 1015.28 L240.533 1013.62 L245.209 1013.62 L245.209 1044.24 L252.847 1044.24 L252.847 1048.18 L232.94 1048.18 L232.94 1044.24 Z" fill="#000000" fill-rule="nonzero" fill-opacity="1" /><path clip-path="url(#clip560)" d="M272.292 1016.7 Q268.681 1016.7 266.852 1020.26 Q265.046 1023.8 265.046 1030.93 Q265.046 1038.04 266.852 1041.6 Q268.681 1045.15 272.292 1045.15 Q275.926 1045.15 277.732 1041.6 Q279.56 1038.04 279.56 1030.93 Q279.56 1023.8 277.732 1020.26 Q275.926 1016.7 272.292 1016.7 M272.292 1012.99 Q278.102 1012.99 281.157 1017.6 Q284.236 1022.18 284.236 1030.93 Q284.236 1039.66 281.157 1044.27 Q278.102 1048.85 272.292 1048.85 Q266.482 1048.85 263.403 1044.27 Q260.347 1039.66 260.347 1030.93 Q260.347 1022.18 263.403 1017.6 Q266.482 1012.99 272.292 1012.99 Z" fill="#000000" fill-rule="nonzero" fill-opacity="1" /><path clip-path="url(#clip560)" d="M285.421 992.688 L300.336 992.688 L300.336 995.885 L288.9 995.885 L288.9 1002.77 Q289.728 1002.49 290.556 1002.36 Q291.383 1002.2 292.211 1002.2 Q296.913 1002.2 299.658 1004.78 Q302.404 1007.36 302.404 1011.76 Q302.404 1016.29 299.583 1018.81 Q296.762 1021.31 291.628 1021.31 Q289.86 1021.31 288.016 1021.01 Q286.192 1020.71 284.236 1020.11 L284.236 1016.29 Q285.929 1017.21 287.734 1017.66 Q289.54 1018.12 291.552 1018.12 Q294.806 1018.12 296.706 1016.4 Q298.605 1014.69 298.605 1011.76 Q298.605 1008.82 296.706 1007.11 Q294.806 1005.4 291.552 1005.4 Q290.029 1005.4 288.505 1005.74 Q287.001 1006.08 285.421 1006.79 L285.421 992.688 Z" fill="#000000" fill-rule="nonzero" fill-opacity="1" /><path clip-path="url(#clip560)" d="M129.862 637.643 L118.056 656.092 L129.862 656.092 L129.862 637.643 M128.635 633.569 L134.515 633.569 L134.515 656.092 L139.445 656.092 L139.445 659.981 L134.515 659.981 L134.515 668.129 L129.862 668.129 L129.862 659.981 L114.26 659.981 L114.26 655.467 L128.635 633.569 Z" fill="#000000" fill-rule="nonzero" fill-opacity="1" /><path clip-path="url(#clip560)" d="M147.177 662.249 L152.061 662.249 L152.061 668.129 L147.177 668.129 L147.177 662.249 Z" fill="#000000" fill-rule="nonzero" fill-opacity="1" /><path clip-path="url(#clip560)" d="M172.246 636.648 Q168.635 636.648 166.806 640.212 Q165.001 643.754 165.001 650.884 Q165.001 657.99 166.806 661.555 Q168.635 665.096 172.246 665.096 Q175.88 665.096 177.686 661.555 Q179.514 657.99 179.514 650.884 Q179.514 643.754 177.686 640.212 Q175.88 636.648 172.246 636.648 M172.246 632.944 Q178.056 632.944 181.112 637.55 Q184.19 642.134 184.19 650.884 Q184.19 659.61 181.112 664.217 Q178.056 668.8 172.246 668.8 Q166.436 668.8 163.357 664.217 Q160.302 659.61 160.302 650.884 Q160.302 642.134 163.357 637.55 Q166.436 632.944 172.246 632.944 Z" fill="#000000" fill-rule="nonzero" fill-opacity="1" /><path clip-path="url(#clip560)" d="M220.579 642.666 L210 653.291 L220.579 663.87 L217.824 666.671 L207.199 656.046 L196.575 666.671 L193.843 663.87 L204.399 653.291 L193.843 642.666 L196.575 639.865 L207.199 650.49 L217.824 639.865 L220.579 642.666 Z" fill="#000000" fill-rule="nonzero" fill-opacity="1" /><path clip-path="url(#clip560)" d="M232.94 664.194 L240.579 664.194 L240.579 637.828 L232.269 639.495 L232.269 635.235 L240.533 633.569 L245.209 633.569 L245.209 664.194 L252.847 664.194 L252.847 668.129 L232.94 668.129 L232.94 664.194 Z" fill="#000000" fill-rule="nonzero" fill-opacity="1" /><path clip-path="url(#clip560)" d="M272.292 636.648 Q268.681 636.648 266.852 640.212 Q265.046 643.754 265.046 650.884 Q265.046 657.99 266.852 661.555 Q268.681 665.096 272.292 665.096 Q275.926 665.096 277.732 661.555 Q279.56 657.99 279.56 650.884 Q279.56 643.754 277.732 640.212 Q275.926 636.648 272.292 636.648 M272.292 632.944 Q278.102 632.944 281.157 637.55 Q284.236 642.134 284.236 650.884 Q284.236 659.61 281.157 664.217 Q278.102 668.8 272.292 668.8 Q266.482 668.8 263.403 664.217 Q260.347 659.61 260.347 650.884 Q260.347 642.134 263.403 637.55 Q266.482 632.944 272.292 632.944 Z" fill="#000000" fill-rule="nonzero" fill-opacity="1" /><path clip-path="url(#clip560)" d="M285.421 612.638 L300.336 612.638 L300.336 615.836 L288.9 615.836 L288.9 622.719 Q289.728 622.437 290.556 622.306 Q291.383 622.155 292.211 622.155 Q296.913 622.155 299.658 624.732 Q302.404 627.308 302.404 631.71 Q302.404 636.242 299.583 638.762 Q296.762 641.264 291.628 641.264 Q289.86 641.264 288.016 640.963 Q286.192 640.662 284.236 640.06 L284.236 636.242 Q285.929 637.164 287.734 637.615 Q289.54 638.067 291.552 638.067 Q294.806 638.067 296.706 636.355 Q298.605 634.644 298.605 631.71 Q298.605 628.775 296.706 627.064 Q294.806 625.352 291.552 625.352 Q290.029 625.352 288.505 625.691 Q287.001 626.03 285.421 626.744 L285.421 612.638 Z" fill="#000000" fill-rule="nonzero" fill-opacity="1" /><path clip-path="url(#clip560)" d="M127.593 268.936 Q124.445 268.936 122.593 271.089 Q120.765 273.241 120.765 276.991 Q120.765 280.718 122.593 282.894 Q124.445 285.047 127.593 285.047 Q130.742 285.047 132.57 282.894 Q134.422 280.718 134.422 276.991 Q134.422 273.241 132.57 271.089 Q130.742 268.936 127.593 268.936 M136.876 254.283 L136.876 258.543 Q135.117 257.709 133.311 257.269 Q131.529 256.83 129.769 256.83 Q125.14 256.83 122.686 259.955 Q120.255 263.08 119.908 269.399 Q121.274 267.385 123.334 266.32 Q125.394 265.232 127.871 265.232 Q133.08 265.232 136.089 268.404 Q139.121 271.552 139.121 276.991 Q139.121 282.316 135.973 285.533 Q132.825 288.751 127.593 288.751 Q121.598 288.751 118.427 284.167 Q115.256 279.561 115.256 270.834 Q115.256 262.64 119.144 257.779 Q123.033 252.894 129.584 252.894 Q131.343 252.894 133.126 253.242 Q134.931 253.589 136.876 254.283 Z" fill="#000000" fill-rule="nonzero" fill-opacity="1" /><path clip-path="url(#clip560)" d="M147.177 282.2 L152.061 282.2 L152.061 288.079 L147.177 288.079 L147.177 282.2 Z" fill="#000000" fill-rule="nonzero" fill-opacity="1" /><path clip-path="url(#clip560)" d="M172.246 256.598 Q168.635 256.598 166.806 260.163 Q165.001 263.705 165.001 270.834 Q165.001 277.941 166.806 281.505 Q168.635 285.047 172.246 285.047 Q175.88 285.047 177.686 281.505 Q179.514 277.941 179.514 270.834 Q179.514 263.705 177.686 260.163 Q175.88 256.598 172.246 256.598 M172.246 252.894 Q178.056 252.894 181.112 257.501 Q184.19 262.084 184.19 270.834 Q184.19 279.561 181.112 284.167 Q178.056 288.751 172.246 288.751 Q166.436 288.751 163.357 284.167 Q160.302 279.561 160.302 270.834 Q160.302 262.084 163.357 257.501 Q166.436 252.894 172.246 252.894 Z" fill="#000000" fill-rule="nonzero" fill-opacity="1" /><path clip-path="url(#clip560)" d="M220.579 262.617 L210 273.241 L220.579 283.82 L217.824 286.621 L207.199 275.996 L196.575 286.621 L193.843 283.82 L204.399 273.241 L193.843 262.617 L196.575 259.816 L207.199 270.441 L217.824 259.816 L220.579 262.617 Z" fill="#000000" fill-rule="nonzero" fill-opacity="1" /><path clip-path="url(#clip560)" d="M232.94 284.144 L240.579 284.144 L240.579 257.779 L232.269 259.445 L232.269 255.186 L240.533 253.519 L245.209 253.519 L245.209 284.144 L252.847 284.144 L252.847 288.079 L232.94 288.079 L232.94 284.144 Z" fill="#000000" fill-rule="nonzero" fill-opacity="1" /><path clip-path="url(#clip560)" d="M272.292 256.598 Q268.681 256.598 266.852 260.163 Q265.046 263.705 265.046 270.834 Q265.046 277.941 266.852 281.505 Q268.681 285.047 272.292 285.047 Q275.926 285.047 277.732 281.505 Q279.56 277.941 279.56 270.834 Q279.56 263.705 277.732 260.163 Q275.926 256.598 272.292 256.598 M272.292 252.894 Q278.102 252.894 281.157 257.501 Q284.236 262.084 284.236 270.834 Q284.236 279.561 281.157 284.167 Q278.102 288.751 272.292 288.751 Q266.482 288.751 263.403 284.167 Q260.347 279.561 260.347 270.834 Q260.347 262.084 263.403 257.501 Q266.482 252.894 272.292 252.894 Z" fill="#000000" fill-rule="nonzero" fill-opacity="1" /><path clip-path="url(#clip560)" d="M285.421 232.589 L300.336 232.589 L300.336 235.786 L288.9 235.786 L288.9 242.67 Q289.728 242.388 290.556 242.256 Q291.383 242.106 292.211 242.106 Q296.913 242.106 299.658 244.682 Q302.404 247.259 302.404 251.66 Q302.404 256.193 299.583 258.713 Q296.762 261.214 291.628 261.214 Q289.86 261.214 288.016 260.913 Q286.192 260.613 284.236 260.011 L284.236 256.193 Q285.929 257.114 287.734 257.566 Q289.54 258.017 291.552 258.017 Q294.806 258.017 296.706 256.306 Q298.605 254.594 298.605 251.66 Q298.605 248.726 296.706 247.015 Q294.806 245.303 291.552 245.303 Q290.029 245.303 288.505 245.642 Q287.001 245.98 285.421 246.695 L285.421 232.589 Z" fill="#000000" fill-rule="nonzero" fill-opacity="1" /><path clip-path="url(#clip560)" d="M16.4842 893.909 L16.4842 885.252 L56.238 864.181 L16.4842 864.181 L16.4842 857.943 L64.0042 857.943 L64.0042 866.6 L24.2503 887.671 L64.0042 887.671 L64.0042 893.909 L16.4842 893.909 Z" fill="#000000" fill-rule="nonzero" fill-opacity="1" /><path clip-path="url(#clip560)" d="M44.7161 814.911 L47.5806 814.911 L47.5806 841.838 Q53.6281 841.456 56.8109 838.209 Q59.9619 834.931 59.9619 829.106 Q59.9619 825.732 59.1344 822.581 Q58.3069 819.398 56.6518 816.279 L62.1899 816.279 Q63.5267 819.43 64.227 822.74 Q64.9272 826.051 64.9272 829.456 Q64.9272 837.986 59.9619 842.983 Q54.9967 847.949 46.5303 847.949 Q37.7774 847.949 32.6531 843.238 Q27.4968 838.496 27.4968 830.475 Q27.4968 823.282 32.1438 819.112 Q36.7589 814.911 44.7161 814.911 M42.9973 820.767 Q38.1912 820.831 35.3266 823.472 Q32.4621 826.082 32.4621 830.411 Q32.4621 835.313 35.2312 838.273 Q38.0002 841.201 43.0292 841.647 L42.9973 820.767 Z" fill="#000000" fill-rule="nonzero" fill-opacity="1" /><path clip-path="url(#clip560)" d="M18.2347 799.506 L28.3562 799.506 L28.3562 787.443 L32.9077 787.443 L32.9077 799.506 L52.2594 799.506 Q56.6199 799.506 57.8613 798.328 Q59.1026 797.118 59.1026 793.458 L59.1026 787.443 L64.0042 787.443 L64.0042 793.458 Q64.0042 800.238 61.4897 802.816 Q58.9434 805.394 52.2594 805.394 L32.9077 805.394 L32.9077 809.691 L28.3562 809.691 L28.3562 805.394 L18.2347 805.394 L18.2347 799.506 Z" fill="#000000" fill-rule="nonzero" fill-opacity="1" /><path clip-path="url(#clip560)" d="M16.4842 762.998 L16.4842 756.505 L56.6518 746.511 L16.4842 736.549 L16.4842 729.324 L56.6518 719.33 L16.4842 709.367 L16.4842 702.842 L64.0042 714.778 L64.0042 722.862 L22.7544 732.888 L64.0042 743.01 L64.0042 751.094 L16.4842 762.998 Z" fill="#000000" fill-rule="nonzero" fill-opacity="1" /><path clip-path="url(#clip560)" d="M32.4621 684.573 Q32.4621 689.283 36.1542 692.021 Q39.8145 694.758 46.212 694.758 Q52.6095 694.758 56.3017 692.052 Q59.9619 689.315 59.9619 684.573 Q59.9619 679.894 56.2698 677.157 Q52.5777 674.419 46.212 674.419 Q39.8781 674.419 36.186 677.157 Q32.4621 679.894 32.4621 684.573 M27.4968 684.573 Q27.4968 676.934 32.4621 672.573 Q37.4273 668.213 46.212 668.213 Q54.9649 668.213 59.9619 672.573 Q64.9272 676.934 64.9272 684.573 Q64.9272 692.243 59.9619 696.604 Q54.9649 700.933 46.212 700.933 Q37.4273 700.933 32.4621 696.604 Q27.4968 692.243 27.4968 684.573 Z" fill="#000000" fill-rule="nonzero" fill-opacity="1" /><path clip-path="url(#clip560)" d="M33.8307 637.848 Q33.2578 638.835 33.0032 640.013 Q32.7167 641.159 32.7167 642.559 Q32.7167 647.524 35.9632 650.198 Q39.1779 652.84 45.2253 652.84 L64.0042 652.84 L64.0042 658.728 L28.3562 658.728 L28.3562 652.84 L33.8944 652.84 Q30.6479 650.994 29.0883 648.034 Q27.4968 645.074 27.4968 640.84 Q27.4968 640.236 27.5923 639.504 Q27.656 638.772 27.8151 637.88 L33.8307 637.848 Z" fill="#000000" fill-rule="nonzero" fill-opacity="1" /><path clip-path="url(#clip560)" d="M18.2347 625.913 L28.3562 625.913 L28.3562 613.85 L32.9077 613.85 L32.9077 625.913 L52.2594 625.913 Q56.6199 625.913 57.8613 624.735 Q59.1026 623.526 59.1026 619.865 L59.1026 613.85 L64.0042 613.85 L64.0042 619.865 Q64.0042 626.645 61.4897 629.223 Q58.9434 631.801 52.2594 631.801 L32.9077 631.801 L32.9077 636.098 L28.3562 636.098 L28.3562 631.801 L18.2347 631.801 L18.2347 625.913 Z" fill="#000000" fill-rule="nonzero" fill-opacity="1" /><path clip-path="url(#clip560)" d="M42.4881 576.515 L64.0042 576.515 L64.0042 582.371 L42.679 582.371 Q37.6183 582.371 35.1038 584.345 Q32.5894 586.318 32.5894 590.265 Q32.5894 595.007 35.6131 597.745 Q38.6368 600.482 43.8567 600.482 L64.0042 600.482 L64.0042 606.37 L14.479 606.37 L14.479 600.482 L33.8944 600.482 Q30.6797 598.381 29.0883 595.548 Q27.4968 592.684 27.4968 588.96 Q27.4968 582.817 31.3163 579.666 Q35.1038 576.515 42.4881 576.515 Z" fill="#000000" fill-rule="nonzero" fill-opacity="1" /><polyline clip-path="url(#clip562)" style="stroke:#009af9; stroke-linecap:round; stroke-linejoin:round; stroke-width:4; stroke-opacity:1; fill:none" points="395.414,1384.24 398.149,1382.97 400.883,1381.71 403.617,1380.43 406.352,1379.16 409.086,1377.87 411.82,1376.59 414.554,1375.3 417.289,1374 420.023,1372.7 422.757,1371.4 425.492,1370.09 428.226,1368.77 430.96,1367.45 433.694,1366.13 436.429,1364.8 439.163,1363.47 441.897,1362.13 444.632,1360.79 447.366,1359.44 450.1,1358.09 452.834,1356.73 455.569,1355.37 458.303,1354 461.037,1352.63 463.772,1351.26 466.506,1349.88 469.24,1348.49 471.974,1347.1 474.709,1345.7 477.443,1344.3 480.177,1342.9 482.912,1341.49 485.646,1340.07 488.38,1338.65 491.115,1337.22 493.849,1335.79 496.583,1334.36 499.317,1332.92 502.052,1331.47 504.786,1330.02 507.52,1328.56 510.255,1327.1 512.989,1325.63 515.723,1324.16 518.457,1322.68 521.192,1321.2 523.926,1319.71 526.66,1318.22 529.395,1316.72 532.129,1315.22 534.863,1313.71 537.597,1312.19 540.332,1310.67 543.066,1309.15 545.8,1307.62 548.535,1306.08 551.269,1304.54 554.003,1302.99 556.737,1301.44 559.472,1299.88 562.206,1298.32 564.94,1296.75 567.675,1295.18 570.409,1293.6 573.143,1292.01 575.877,1290.42 578.612,1288.82 581.346,1287.22 584.08,1285.61 586.815,1284 589.549,1282.38 592.283,1280.75 595.018,1279.12 597.752,1277.48 600.486,1275.84 603.22,1274.19 605.955,1272.53 608.689,1270.87 611.423,1269.21 614.158,1267.53 616.892,1265.86 619.626,1264.17 622.36,1262.48 625.095,1260.78 627.829,1259.08 630.563,1257.37 633.298,1255.66 636.032,1253.94 638.766,1252.21 641.5,1250.48 644.235,1248.74 646.969,1246.99 649.703,1245.24 652.438,1243.48 655.172,1241.72 657.906,1239.95 660.64,1238.17 663.375,1236.39 666.109,1234.6 668.843,1232.81 671.578,1231 674.312,1229.2 677.046,1227.38 679.781,1225.56 682.515,1223.73 685.249,1221.9 687.983,1220.06 690.718,1218.21 693.452,1216.36 696.186,1214.5 698.921,1212.63 701.655,1210.76 704.389,1208.88 707.123,1206.99 709.858,1205.1 712.592,1203.19 715.326,1201.29 718.061,1199.37 720.795,1197.45 723.529,1195.53 726.263,1193.59 728.998,1191.65 731.732,1189.7 734.466,1187.75 737.201,1185.79 739.935,1183.82 742.669,1181.84 745.403,1179.86 748.138,1177.87 750.872,1175.87 753.606,1173.87 756.341,1171.85 759.075,1169.84 761.809,1167.81 764.544,1165.78 767.278,1163.74 770.012,1161.69 772.746,1159.64 775.481,1157.57 778.215,1155.5 780.949,1153.43 783.684,1151.34 786.418,1149.25 789.152,1147.15 791.886,1145.05 794.621,1142.93 797.355,1140.81 800.089,1138.68 802.824,1136.55 805.558,1134.4 808.292,1132.25 811.026,1130.09 813.761,1127.93 816.495,1125.75 819.229,1123.57 821.964,1121.38 824.698,1119.18 827.432,1116.98 830.166,1114.76 832.901,1112.54 835.635,1110.31 838.369,1108.08 841.104,1105.83 843.838,1103.58 846.572,1101.32 849.307,1099.05 852.041,1096.77 854.775,1094.49 857.509,1092.19 860.244,1089.89 862.978,1087.58 865.712,1085.26 868.447,1082.94 871.181,1080.6 873.915,1078.26 876.649,1075.91 879.384,1073.55 882.118,1071.18 884.852,1068.81 887.587,1066.42 890.321,1064.03 893.055,1061.63 895.789,1059.22 898.524,1056.8 901.258,1054.37 903.992,1051.93 906.727,1049.49 909.461,1047.04 912.195,1044.57 914.929,1042.1 917.664,1039.62 920.398,1037.14 923.132,1034.64 925.867,1032.13 928.601,1029.62 931.335,1027.09 934.069,1024.56 936.804,1022.02 939.538,1019.47 942.272,1016.91 945.007,1014.34 947.741,1011.76 950.475,1009.18 953.21,1006.58 955.944,1003.97 958.678,1001.36 961.412,998.734 964.147,996.1 966.881,993.458 969.615,990.805 972.35,988.144 975.084,985.472 977.818,982.792 980.552,980.102 983.287,977.402 986.021,974.693 988.755,971.974 991.49,969.245 994.224,966.507 996.958,963.759 999.692,961.001 1002.43,958.233 1005.16,955.456 1007.9,952.669 1010.63,949.871 1013.36,947.064 1016.1,944.247 1018.83,941.42 1021.57,938.583 1024.3,935.736 1027.04,932.878 1029.77,930.011 1032.5,927.133 1035.24,924.245 1037.97,921.347 1040.71,918.438 1043.44,915.52 1046.18,912.59 1048.91,909.651 1051.64,906.701 1054.38,903.74 1057.11,900.769 1059.85,897.788 1062.58,894.795 1065.32,891.793 1068.05,888.779 1070.78,885.755 1073.52,882.72 1076.25,879.674 1078.99,876.618 1081.72,873.55 1084.46,870.472 1087.19,867.383 1089.92,864.283 1092.66,861.171 1095.39,858.049 1098.13,854.916 1100.86,851.771 1103.6,848.615 1106.33,845.449 1109.06,842.27 1111.8,839.081 1114.53,835.88 1117.27,832.668 1120,829.444 1122.74,826.209 1125.47,822.963 1128.2,819.705 1130.94,816.435 1133.67,813.154 1136.41,809.861 1139.14,806.557 1141.88,803.24 1144.61,799.912 1147.34,796.572 1150.08,793.22 1152.81,789.857 1155.55,786.481 1158.28,783.093 1161.02,779.694 1163.75,776.282 1166.48,772.858 1169.22,769.422 1171.95,765.974 1174.69,762.513 1177.42,759.04 1180.16,755.555 1182.89,752.058 1185.62,748.548 1188.36,745.025 1191.09,741.49 1193.83,737.943 1196.56,734.383 1199.3,730.81 1202.03,727.225 1204.76,723.626 1207.5,720.015 1210.23,716.392 1212.97,712.755 1215.7,709.105 1218.44,705.443 1221.17,701.767 1223.9,698.079 1226.64,694.377 1229.37,690.662 1232.11,686.934 1234.84,683.193 1237.58,679.438 1240.31,675.67 1243.04,671.889 1245.78,668.094 1248.51,664.286 1251.25,660.464 1253.98,656.628 1256.72,652.779 1259.45,648.917 1262.18,645.04 1264.92,641.15 1267.65,637.246 1270.39,633.328 1273.12,629.396 1275.86,625.451 1278.59,621.491 1281.32,617.517 1284.06,613.529 1286.79,609.527 1289.53,605.511 1292.26,601.48 1295,597.435 1297.73,593.376 1300.46,589.302 1303.2,585.214 1305.93,581.111 1308.67,576.994 1311.4,572.862 1314.14,568.715 1316.87,564.554 1319.6,560.378 1322.34,556.187 1325.07,551.981 1327.81,547.76 1330.54,543.524 1333.28,539.273 1336.01,535.007 1338.74,530.726 1341.48,526.43 1344.21,522.118 1346.95,517.791 1349.68,513.449 1352.42,509.091 1355.15,504.718 1357.88,500.329 1360.62,495.925 1363.35,491.505 1366.09,487.069 1368.82,482.618 1371.56,478.151 1374.29,473.667 1377.02,469.168 1379.76,464.653 1382.49,460.122 1385.23,455.575 1387.96,451.012 1390.7,446.432 1393.43,441.836 1396.16,437.224 1398.9,432.596 1401.63,427.951 1404.37,423.289 1407.1,418.611 1409.84,413.916 1412.57,409.205 1415.3,404.477 1418.04,399.732 1420.77,394.97 1423.51,390.192 1426.24,385.396 1428.98,380.583 1431.71,375.754 1434.44,370.907 1437.18,366.043 1439.91,361.161 1442.65,356.262 1445.38,351.346 1448.12,346.412 1450.85,341.461 1453.58,336.492 1456.32,331.506 1459.05,326.502 1461.79,321.48 1464.52,316.44 1467.26,311.383 1469.99,306.307 1472.72,301.213 1475.46,296.101 1478.19,290.971 1480.93,285.823 1483.66,280.657 1486.4,275.472 1489.13,270.269 1491.86,265.047 1494.6,259.807 1497.33,254.548 1500.07,249.27 1502.8,243.974 1505.54,238.659 1508.27,233.325 1511,227.972 1513.74,222.6 1516.47,217.209 1519.21,211.799 1521.94,206.369 1524.68,200.92 1527.41,195.452 1530.14,189.965 1532.88,184.458 1535.61,178.931 1538.35,173.385 1541.08,172.014 1543.82,171.831 1546.55,171.647 1549.28,171.462 1552.02,171.276 1554.75,171.09 1557.49,170.903 1560.22,170.716 1562.96,170.528 1565.69,170.339 1568.42,170.149 1571.16,169.959 1573.89,169.768 1576.63,169.577 1579.36,169.385 1582.1,169.192 1584.83,168.998 1587.56,168.804 1590.3,168.609 1593.03,168.413 1595.77,168.217 1598.5,168.02 1601.24,167.822 1603.97,167.624 1606.7,167.425 1609.44,167.225 1612.17,167.024 1614.91,166.823 1617.64,166.621 1620.38,166.418 1623.11,166.215 1625.84,166.011 1628.58,165.806 1631.31,165.6 1634.05,165.394 1636.78,165.187 1639.52,164.979 1642.25,164.77 1644.98,164.561 1647.72,164.351 1650.45,164.14 1653.19,163.929 1655.92,163.717 1658.66,163.504 1661.39,163.29 1664.12,163.075 1666.86,162.86 1669.59,162.644 1672.33,162.427 1675.06,162.209 1677.8,161.991 1680.53,161.772 1683.26,161.552 1686,161.331 1688.73,161.11 1691.47,160.887 1694.2,160.664 1696.94,160.441 1699.67,160.216 1702.41,159.99 1705.14,159.764 1707.87,159.537 1710.61,159.309 1713.34,159.081 1716.08,158.851 1718.81,158.621 1721.55,158.39 1724.28,158.158 1727.01,157.925 1729.75,157.691 1732.48,157.457 1735.22,157.222 1737.95,156.986 1740.69,156.749 1743.42,156.511 1746.15,156.272 1748.89,156.033 1751.62,155.792 1754.36,155.551 1757.09,155.309 1759.83,155.066 1762.56,154.823 1765.29,154.578 1768.03,154.332 1770.76,154.086 1773.5,153.839 1776.23,153.591 1778.97,153.342 1781.7,153.092 1784.43,152.841 1787.17,152.589 1789.9,152.337 1792.64,152.083 1795.37,151.829 1798.11,151.574 1800.84,151.318 1803.57,151.061 1806.31,150.803 1809.04,150.544 1811.78,150.284 1814.51,150.023 1817.25,149.761 1819.98,149.499 1822.71,149.235 1825.45,148.971 1828.18,148.705 1830.92,148.439 1833.65,148.172 1836.39,147.903 1839.12,147.634 1841.85,147.364 1844.59,147.093 1847.32,146.821 1850.06,146.548 1852.79,146.274 1855.53,145.999 1858.26,145.723 1860.99,145.446 1863.73,145.168 1866.46,144.889 1869.2,144.609 1871.93,144.328 1874.67,144.046 1877.4,143.763 1880.13,143.479 1882.87,143.195 1885.6,142.909 1888.34,142.622 1891.07,142.334 1893.81,142.045 1896.54,141.755 1899.27,141.464 1902.01,141.172 1904.74,140.878 1907.48,140.584 1910.21,140.289 1912.95,139.993 1915.68,139.696 1918.41,139.397 1921.15,139.098 1923.88,138.797 1926.62,138.496 1929.35,138.193 1932.09,137.889 1934.82,137.585 1937.55,137.279 1940.29,136.972 1943.02,136.664 1945.76,136.355 1948.49,136.044 1951.23,135.733 1953.96,135.421 1956.69,135.107 1959.43,134.792 1962.16,134.477 1964.9,134.16 1967.63,133.842 1970.37,133.522 1973.1,133.202 1975.83,132.881 1978.57,132.558 1981.3,132.234 1984.04,131.909 1986.77,131.583 1989.51,131.256 1992.24,130.928 1994.97,130.598 1997.71,130.268 2000.44,129.936 2003.18,129.603 2005.91,129.269 2008.65,128.933 2011.38,128.597 2014.11,128.259 2016.85,127.92 2019.58,127.58 2022.32,127.238 2025.05,126.896 2027.79,126.552 2030.52,126.207 2033.25,125.86 2035.99,125.513 2038.72,125.164 2041.46,124.814 2044.19,124.463 2046.93,124.11 2049.66,123.757 2052.39,123.402 2055.13,123.045 2057.86,122.688 2060.6,122.329 2063.33,121.969 2066.07,121.608 2068.8,121.245 2071.53,120.881 2074.27,120.516 2077,120.149 2079.74,119.781 2082.47,119.412 2085.21,119.042 2087.94,118.67 2090.67,118.297 2093.41,117.923 2096.14,117.547 2098.88,117.17 2101.61,116.792 2104.35,116.412 2107.08,116.031 2109.81,115.648 2112.55,115.264 2115.28,114.879 2118.02,114.493 2120.75,114.105 2123.49,113.716 2126.22,113.325 2128.95,112.933 2131.69,112.539 2134.42,112.145 2137.16,111.748 2139.89,111.351 2142.63,110.952 2145.36,110.551 2148.09,110.149 2150.83,109.746 2153.56,109.341 2156.3,108.935 2159.03,108.527 2161.77,108.118 2164.5,107.707 2167.23,107.295 2169.97,106.882 2172.7,106.467 2175.44,106.051 2178.17,105.633 2180.91,105.213 2183.64,104.792 2186.37,104.37 2189.11,103.946 2191.84,103.521 2194.58,103.094 2197.31,102.665 2200.05,102.236 2202.78,101.804 2205.51,101.371 2208.25,100.937 2210.98,100.5 2213.72,100.063 2216.45,99.6237 2219.19,99.1829 2221.92,98.7406 2224.65,98.2968 2227.39,97.8513 2230.12,97.4043 2232.86,96.9556 2235.59,96.5054 2238.33,96.0536 2241.06,95.6002 2243.79,95.1451 2246.53,94.6885 2249.26,94.2302 2252,93.7703 2254.73,93.3088 2257.47,92.8456 2260.2,92.3808 2262.93,91.9143 2265.67,91.4462 2268.4,90.9764 2271.14,90.5049 2273.87,90.0318 2276.61,89.557 2279.34,89.0805 2282.07,88.6023 2284.81,88.1224 2287.54,87.6408 2290.28,87.1575 2293.01,86.6724 2295.75,86.1857 "/>
</svg>
